<svg width="787" height="175" viewBox="0 0 787 175" fill="none" xmlns="http://www.w3.org/2000/svg">
<rect x="1" y="1" width="785" height="173" rx="19" fill="#F8F9FA"/>
<g opacity="0.1">
<path d="M411.5 78C410.97 78 410.461 78.2107 410.086 78.5858C409.711 78.9609 409.5 79.4696 409.5 80V88C409.5 88.5304 409.289 89.0391 408.914 89.4142C408.539 89.7893 408.03 90 407.5 90H379.5C378.97 90 378.461 89.7893 378.086 89.4142C377.711 89.0391 377.5 88.5304 377.5 88V80C377.5 79.4696 377.289 78.9609 376.914 78.5858C376.539 78.2107 376.03 78 375.5 78C374.97 78 374.461 78.2107 374.086 78.5858C373.711 78.9609 373.5 79.4696 373.5 80V88C373.5 89.5913 374.132 91.1174 375.257 92.2426C376.383 93.3679 377.909 94 379.5 94H407.5C409.091 94 410.617 93.3679 411.743 92.2426C412.868 91.1174 413.5 89.5913 413.5 88V80C413.5 79.4696 413.289 78.9609 412.914 78.5858C412.539 78.2107 412.03 78 411.5 78ZM392.08 81.42C392.27 81.6021 392.494 81.7448 392.74 81.84C392.979 81.9458 393.238 82.0005 393.5 82.0005C393.762 82.0005 394.021 81.9458 394.26 81.84C394.506 81.7448 394.73 81.6021 394.92 81.42L402.92 73.42C403.297 73.0434 403.508 72.5326 403.508 72C403.508 71.4674 403.297 70.9566 402.92 70.58C402.543 70.2034 402.033 69.9918 401.5 69.9918C400.967 69.9918 400.457 70.2034 400.08 70.58L395.5 75.18V56C395.5 55.4696 395.289 54.9609 394.914 54.5858C394.539 54.2107 394.03 54 393.5 54C392.97 54 392.461 54.2107 392.086 54.5858C391.711 54.9609 391.5 55.4696 391.5 56V75.18L386.92 70.58C386.734 70.3935 386.512 70.2456 386.268 70.1447C386.025 70.0438 385.764 69.9918 385.5 69.9918C385.236 69.9918 384.975 70.0438 384.732 70.1447C384.488 70.2456 384.266 70.3935 384.08 70.58C383.894 70.7665 383.746 70.9879 383.645 71.2315C383.544 71.4751 383.492 71.7363 383.492 72C383.492 72.2637 383.544 72.5249 383.645 72.7685C383.746 73.0121 383.894 73.2335 384.08 73.42L392.08 81.42Z" fill="black"/>
</g>
<path opacity="0.5" d="M253 121H249.409V109.364H253.159C254.288 109.364 255.254 109.597 256.057 110.062C256.86 110.525 257.475 111.189 257.903 112.057C258.331 112.92 258.545 113.955 258.545 115.159C258.545 116.371 258.33 117.415 257.898 118.29C257.466 119.161 256.837 119.831 256.011 120.301C255.186 120.767 254.182 121 253 121ZM250.818 119.75H252.909C253.871 119.75 254.669 119.564 255.301 119.193C255.934 118.822 256.405 118.294 256.716 117.608C257.027 116.922 257.182 116.106 257.182 115.159C257.182 114.22 257.028 113.411 256.722 112.733C256.415 112.051 255.956 111.528 255.347 111.165C254.737 110.797 253.977 110.614 253.068 110.614H250.818V119.75ZM260.727 121V112.273H262.023V113.591H262.114C262.273 113.159 262.561 112.809 262.977 112.54C263.394 112.271 263.864 112.136 264.386 112.136C264.485 112.136 264.608 112.138 264.756 112.142C264.903 112.146 265.015 112.152 265.091 112.159V113.523C265.045 113.511 264.941 113.494 264.778 113.472C264.619 113.445 264.451 113.432 264.273 113.432C263.848 113.432 263.47 113.521 263.136 113.699C262.807 113.873 262.545 114.116 262.352 114.426C262.163 114.733 262.068 115.083 262.068 115.477V121H260.727ZM269.96 121.182C269.172 121.182 268.481 120.994 267.886 120.619C267.295 120.244 266.833 119.72 266.5 119.045C266.17 118.371 266.006 117.583 266.006 116.682C266.006 115.773 266.17 114.979 266.5 114.301C266.833 113.623 267.295 113.097 267.886 112.722C268.481 112.347 269.172 112.159 269.96 112.159C270.748 112.159 271.438 112.347 272.028 112.722C272.623 113.097 273.085 113.623 273.415 114.301C273.748 114.979 273.915 115.773 273.915 116.682C273.915 117.583 273.748 118.371 273.415 119.045C273.085 119.72 272.623 120.244 272.028 120.619C271.438 120.994 270.748 121.182 269.96 121.182ZM269.96 119.977C270.559 119.977 271.051 119.824 271.438 119.517C271.824 119.21 272.11 118.807 272.295 118.307C272.481 117.807 272.574 117.265 272.574 116.682C272.574 116.098 272.481 115.555 272.295 115.051C272.11 114.547 271.824 114.14 271.438 113.83C271.051 113.519 270.559 113.364 269.96 113.364C269.362 113.364 268.869 113.519 268.483 113.83C268.097 114.14 267.811 114.547 267.625 115.051C267.439 115.555 267.347 116.098 267.347 116.682C267.347 117.265 267.439 117.807 267.625 118.307C267.811 118.807 268.097 119.21 268.483 119.517C268.869 119.824 269.362 119.977 269.96 119.977ZM275.962 124.273V112.273H277.257V113.659H277.416C277.515 113.508 277.651 113.314 277.825 113.08C278.003 112.841 278.257 112.629 278.587 112.443C278.92 112.254 279.371 112.159 279.939 112.159C280.674 112.159 281.321 112.343 281.882 112.71C282.443 113.078 282.88 113.598 283.195 114.273C283.509 114.947 283.666 115.742 283.666 116.659C283.666 117.583 283.509 118.384 283.195 119.062C282.88 119.737 282.445 120.259 281.888 120.631C281.331 120.998 280.689 121.182 279.962 121.182C279.401 121.182 278.952 121.089 278.615 120.903C278.278 120.714 278.018 120.5 277.837 120.261C277.655 120.019 277.515 119.818 277.416 119.659H277.303V124.273H275.962ZM277.28 116.636C277.28 117.295 277.376 117.877 277.57 118.381C277.763 118.881 278.045 119.273 278.416 119.557C278.787 119.837 279.242 119.977 279.78 119.977C280.34 119.977 280.808 119.83 281.183 119.534C281.562 119.235 281.846 118.833 282.036 118.33C282.229 117.822 282.325 117.258 282.325 116.636C282.325 116.023 282.231 115.47 282.041 114.977C281.856 114.481 281.573 114.089 281.195 113.801C280.82 113.509 280.348 113.364 279.78 113.364C279.234 113.364 278.776 113.502 278.405 113.778C278.034 114.051 277.753 114.434 277.564 114.926C277.375 115.415 277.28 115.985 277.28 116.636ZM291.075 124.273C290.848 124.273 290.645 124.254 290.467 124.216C290.289 124.182 290.166 124.148 290.098 124.114L290.439 122.932C290.765 123.015 291.053 123.045 291.303 123.023C291.553 123 291.774 122.888 291.967 122.688C292.164 122.491 292.344 122.17 292.507 121.727L292.757 121.045L289.53 112.273H290.984L293.393 119.227H293.484L295.893 112.273H297.348L293.643 122.273C293.477 122.723 293.27 123.097 293.024 123.392C292.778 123.691 292.492 123.913 292.166 124.057C291.844 124.201 291.481 124.273 291.075 124.273ZM302.351 121.182C301.563 121.182 300.872 120.994 300.277 120.619C299.686 120.244 299.224 119.72 298.891 119.045C298.561 118.371 298.396 117.583 298.396 116.682C298.396 115.773 298.561 114.979 298.891 114.301C299.224 113.623 299.686 113.097 300.277 112.722C300.872 112.347 301.563 112.159 302.351 112.159C303.139 112.159 303.828 112.347 304.419 112.722C305.014 113.097 305.476 113.623 305.805 114.301C306.139 114.979 306.305 115.773 306.305 116.682C306.305 117.583 306.139 118.371 305.805 119.045C305.476 119.72 305.014 120.244 304.419 120.619C303.828 120.994 303.139 121.182 302.351 121.182ZM302.351 119.977C302.949 119.977 303.442 119.824 303.828 119.517C304.214 119.21 304.5 118.807 304.686 118.307C304.872 117.807 304.964 117.265 304.964 116.682C304.964 116.098 304.872 115.555 304.686 115.051C304.5 114.547 304.214 114.14 303.828 113.83C303.442 113.519 302.949 113.364 302.351 113.364C301.752 113.364 301.26 113.519 300.874 113.83C300.487 114.14 300.201 114.547 300.016 115.051C299.83 115.555 299.737 116.098 299.737 116.682C299.737 117.265 299.83 117.807 300.016 118.307C300.201 118.807 300.487 119.21 300.874 119.517C301.26 119.824 301.752 119.977 302.351 119.977ZM313.852 117.432V112.273H315.193V121H313.852V119.523H313.761C313.557 119.966 313.239 120.343 312.807 120.653C312.375 120.96 311.83 121.114 311.17 121.114C310.625 121.114 310.14 120.994 309.716 120.756C309.292 120.513 308.958 120.15 308.716 119.665C308.473 119.176 308.352 118.561 308.352 117.818V112.273H309.693V117.727C309.693 118.364 309.871 118.871 310.227 119.25C310.587 119.629 311.045 119.818 311.602 119.818C311.936 119.818 312.275 119.733 312.619 119.562C312.968 119.392 313.259 119.131 313.494 118.778C313.733 118.426 313.852 117.977 313.852 117.432ZM317.649 121V112.273H318.945V113.591H319.036C319.195 113.159 319.482 112.809 319.899 112.54C320.316 112.271 320.786 112.136 321.308 112.136C321.407 112.136 321.53 112.138 321.678 112.142C321.825 112.146 321.937 112.152 322.013 112.159V113.523C321.967 113.511 321.863 113.494 321.7 113.472C321.541 113.445 321.373 113.432 321.195 113.432C320.77 113.432 320.392 113.521 320.058 113.699C319.729 113.873 319.467 114.116 319.274 114.426C319.085 114.733 318.99 115.083 318.99 115.477V121H317.649ZM337.648 113H336.239C336.155 112.595 336.009 112.239 335.801 111.932C335.597 111.625 335.347 111.367 335.051 111.159C334.759 110.947 334.436 110.788 334.08 110.682C333.723 110.576 333.352 110.523 332.966 110.523C332.261 110.523 331.623 110.701 331.051 111.057C330.483 111.413 330.03 111.938 329.693 112.631C329.36 113.324 329.193 114.174 329.193 115.182C329.193 116.189 329.36 117.04 329.693 117.733C330.03 118.426 330.483 118.951 331.051 119.307C331.623 119.663 332.261 119.841 332.966 119.841C333.352 119.841 333.723 119.788 334.08 119.682C334.436 119.576 334.759 119.419 335.051 119.21C335.347 118.998 335.597 118.739 335.801 118.432C336.009 118.121 336.155 117.765 336.239 117.364H337.648C337.542 117.958 337.348 118.491 337.068 118.96C336.788 119.43 336.439 119.83 336.023 120.159C335.606 120.485 335.138 120.733 334.619 120.903C334.104 121.074 333.553 121.159 332.966 121.159C331.973 121.159 331.091 120.917 330.318 120.432C329.545 119.947 328.938 119.258 328.494 118.364C328.051 117.47 327.83 116.409 327.83 115.182C327.83 113.955 328.051 112.894 328.494 112C328.938 111.106 329.545 110.417 330.318 109.932C331.091 109.447 331.973 109.205 332.966 109.205C333.553 109.205 334.104 109.29 334.619 109.46C335.138 109.631 335.606 109.881 336.023 110.21C336.439 110.536 336.788 110.934 337.068 111.403C337.348 111.869 337.542 112.402 337.648 113ZM346.288 112.273C346.22 111.697 345.944 111.25 345.459 110.932C344.974 110.614 344.379 110.455 343.675 110.455C343.16 110.455 342.709 110.538 342.322 110.705C341.94 110.871 341.641 111.1 341.425 111.392C341.213 111.684 341.107 112.015 341.107 112.386C341.107 112.697 341.18 112.964 341.328 113.188C341.48 113.407 341.673 113.591 341.908 113.739C342.143 113.883 342.389 114.002 342.646 114.097C342.904 114.187 343.141 114.261 343.357 114.318L344.538 114.636C344.841 114.716 345.179 114.826 345.55 114.966C345.925 115.106 346.283 115.297 346.624 115.54C346.968 115.778 347.252 116.085 347.476 116.46C347.699 116.835 347.811 117.295 347.811 117.841C347.811 118.47 347.646 119.038 347.317 119.545C346.991 120.053 346.514 120.456 345.885 120.756C345.26 121.055 344.5 121.205 343.607 121.205C342.773 121.205 342.052 121.07 341.442 120.801C340.836 120.532 340.358 120.157 340.01 119.676C339.665 119.195 339.47 118.636 339.425 118H340.879C340.917 118.439 341.065 118.803 341.322 119.091C341.584 119.375 341.913 119.587 342.311 119.727C342.713 119.864 343.144 119.932 343.607 119.932C344.144 119.932 344.627 119.845 345.055 119.67C345.483 119.492 345.822 119.246 346.072 118.932C346.322 118.614 346.447 118.242 346.447 117.818C346.447 117.432 346.339 117.117 346.124 116.875C345.908 116.633 345.624 116.436 345.271 116.284C344.919 116.133 344.538 116 344.129 115.886L342.697 115.477C341.788 115.216 341.069 114.843 340.538 114.358C340.008 113.873 339.743 113.239 339.743 112.455C339.743 111.803 339.919 111.235 340.271 110.75C340.627 110.261 341.105 109.883 341.703 109.614C342.305 109.341 342.978 109.205 343.72 109.205C344.47 109.205 345.137 109.339 345.72 109.608C346.304 109.873 346.766 110.237 347.107 110.699C347.451 111.161 347.633 111.686 347.652 112.273H346.288ZM350.605 109.364L354.06 119.159H354.196L357.651 109.364H359.128L354.855 121H353.401L349.128 109.364H350.605ZM368.804 121.182C368.016 121.182 367.325 120.994 366.73 120.619C366.139 120.244 365.677 119.72 365.344 119.045C365.014 118.371 364.849 117.583 364.849 116.682C364.849 115.773 365.014 114.979 365.344 114.301C365.677 113.623 366.139 113.097 366.73 112.722C367.325 112.347 368.016 112.159 368.804 112.159C369.592 112.159 370.281 112.347 370.872 112.722C371.467 113.097 371.929 113.623 372.259 114.301C372.592 114.979 372.759 115.773 372.759 116.682C372.759 117.583 372.592 118.371 372.259 119.045C371.929 119.72 371.467 120.244 370.872 120.619C370.281 120.994 369.592 121.182 368.804 121.182ZM368.804 119.977C369.402 119.977 369.895 119.824 370.281 119.517C370.668 119.21 370.954 118.807 371.139 118.307C371.325 117.807 371.418 117.265 371.418 116.682C371.418 116.098 371.325 115.555 371.139 115.051C370.954 114.547 370.668 114.14 370.281 113.83C369.895 113.519 369.402 113.364 368.804 113.364C368.205 113.364 367.713 113.519 367.327 113.83C366.94 114.14 366.654 114.547 366.469 115.051C366.283 115.555 366.19 116.098 366.19 116.682C366.19 117.265 366.283 117.807 366.469 118.307C366.654 118.807 366.94 119.21 367.327 119.517C367.713 119.824 368.205 119.977 368.804 119.977ZM374.805 121V112.273H376.101V113.591H376.192C376.351 113.159 376.639 112.809 377.055 112.54C377.472 112.271 377.942 112.136 378.464 112.136C378.563 112.136 378.686 112.138 378.834 112.142C378.982 112.146 379.093 112.152 379.169 112.159V113.523C379.124 113.511 379.019 113.494 378.857 113.472C378.697 113.445 378.529 113.432 378.351 113.432C377.927 113.432 377.548 113.521 377.214 113.699C376.885 113.873 376.624 114.116 376.43 114.426C376.241 114.733 376.146 115.083 376.146 115.477V121H374.805ZM386.122 109.364L389.122 114.205H389.213L392.213 109.364H393.872L390.213 115.182L393.872 121H392.213L389.213 116.25H389.122L386.122 121H384.463L388.213 115.182L384.463 109.364H386.122ZM395.706 121V109.364H397.115V119.75H402.524V121H395.706ZM411.07 112.273C411.001 111.697 410.725 111.25 410.24 110.932C409.755 110.614 409.161 110.455 408.456 110.455C407.941 110.455 407.49 110.538 407.104 110.705C406.721 110.871 406.422 111.1 406.206 111.392C405.994 111.684 405.888 112.015 405.888 112.386C405.888 112.697 405.962 112.964 406.109 113.188C406.261 113.407 406.454 113.591 406.689 113.739C406.924 113.883 407.17 114.002 407.428 114.097C407.685 114.187 407.922 114.261 408.138 114.318L409.32 114.636C409.623 114.716 409.96 114.826 410.331 114.966C410.706 115.106 411.064 115.297 411.405 115.54C411.75 115.778 412.034 116.085 412.257 116.46C412.481 116.835 412.592 117.295 412.592 117.841C412.592 118.47 412.428 119.038 412.098 119.545C411.772 120.053 411.295 120.456 410.666 120.756C410.041 121.055 409.282 121.205 408.388 121.205C407.554 121.205 406.833 121.07 406.223 120.801C405.617 120.532 405.14 120.157 404.791 119.676C404.446 119.195 404.251 118.636 404.206 118H405.661C405.698 118.439 405.846 118.803 406.104 119.091C406.365 119.375 406.695 119.587 407.092 119.727C407.494 119.864 407.926 119.932 408.388 119.932C408.926 119.932 409.409 119.845 409.837 119.67C410.265 119.492 410.604 119.246 410.854 118.932C411.104 118.614 411.229 118.242 411.229 117.818C411.229 117.432 411.121 117.117 410.905 116.875C410.689 116.633 410.405 116.436 410.053 116.284C409.7 116.133 409.32 116 408.911 115.886L407.479 115.477C406.57 115.216 405.85 114.843 405.32 114.358C404.789 113.873 404.524 113.239 404.524 112.455C404.524 111.803 404.7 111.235 405.053 110.75C405.409 110.261 405.886 109.883 406.484 109.614C407.087 109.341 407.759 109.205 408.501 109.205C409.251 109.205 409.918 109.339 410.501 109.608C411.085 109.873 411.547 110.237 411.888 110.699C412.232 111.161 412.414 111.686 412.433 112.273H411.07ZM423.114 112.273V113.409H418.409V112.273H423.114ZM419.818 121V111.068C419.818 110.568 419.936 110.152 420.17 109.818C420.405 109.485 420.71 109.235 421.085 109.068C421.46 108.902 421.856 108.818 422.273 108.818C422.602 108.818 422.871 108.845 423.08 108.898C423.288 108.951 423.443 109 423.545 109.045L423.159 110.205C423.091 110.182 422.996 110.153 422.875 110.119C422.758 110.085 422.602 110.068 422.409 110.068C421.966 110.068 421.646 110.18 421.449 110.403C421.256 110.627 421.159 110.955 421.159 111.386V121H419.818ZM424.993 121V112.273H426.334V121H424.993ZM425.675 110.818C425.413 110.818 425.188 110.729 424.999 110.551C424.813 110.373 424.72 110.159 424.72 109.909C424.72 109.659 424.813 109.445 424.999 109.267C425.188 109.089 425.413 109 425.675 109C425.936 109 426.16 109.089 426.345 109.267C426.535 109.445 426.629 109.659 426.629 109.909C426.629 110.159 426.535 110.373 426.345 110.551C426.16 110.729 425.936 110.818 425.675 110.818ZM430.131 109.364V121H428.79V109.364H430.131ZM436.246 121.182C435.405 121.182 434.679 120.996 434.07 120.625C433.464 120.25 432.996 119.727 432.666 119.057C432.34 118.383 432.178 117.598 432.178 116.705C432.178 115.811 432.34 115.023 432.666 114.341C432.996 113.655 433.454 113.121 434.041 112.739C434.632 112.352 435.321 112.159 436.109 112.159C436.564 112.159 437.013 112.235 437.456 112.386C437.899 112.538 438.303 112.784 438.666 113.125C439.03 113.462 439.32 113.909 439.536 114.466C439.751 115.023 439.859 115.708 439.859 116.523V117.091H433.132V115.932H438.496C438.496 115.439 438.397 115 438.2 114.614C438.007 114.227 437.731 113.922 437.371 113.699C437.015 113.475 436.594 113.364 436.109 113.364C435.575 113.364 435.113 113.496 434.723 113.761C434.337 114.023 434.039 114.364 433.831 114.784C433.623 115.205 433.518 115.655 433.518 116.136V116.909C433.518 117.568 433.632 118.127 433.859 118.585C434.09 119.04 434.411 119.386 434.82 119.625C435.229 119.86 435.704 119.977 436.246 119.977C436.598 119.977 436.916 119.928 437.2 119.83C437.488 119.727 437.736 119.576 437.945 119.375C438.153 119.17 438.314 118.917 438.428 118.614L439.723 118.977C439.587 119.417 439.357 119.803 439.036 120.136C438.714 120.466 438.316 120.723 437.842 120.909C437.369 121.091 436.837 121.182 436.246 121.182ZM447.74 115.75V121H446.399V109.364H447.74V113.636H447.854C448.058 113.186 448.365 112.828 448.774 112.562C449.187 112.294 449.736 112.159 450.422 112.159C451.017 112.159 451.537 112.278 451.984 112.517C452.431 112.752 452.778 113.114 453.024 113.602C453.274 114.087 453.399 114.705 453.399 115.455V121H452.058V115.545C452.058 114.852 451.878 114.316 451.518 113.938C451.162 113.555 450.668 113.364 450.036 113.364C449.596 113.364 449.202 113.456 448.854 113.642C448.509 113.828 448.236 114.098 448.036 114.455C447.839 114.811 447.74 115.242 447.74 115.75ZM459.511 121.182C458.67 121.182 457.945 120.996 457.335 120.625C456.729 120.25 456.261 119.727 455.932 119.057C455.606 118.383 455.443 117.598 455.443 116.705C455.443 115.811 455.606 115.023 455.932 114.341C456.261 113.655 456.72 113.121 457.307 112.739C457.898 112.352 458.587 112.159 459.375 112.159C459.83 112.159 460.278 112.235 460.722 112.386C461.165 112.538 461.568 112.784 461.932 113.125C462.295 113.462 462.585 113.909 462.801 114.466C463.017 115.023 463.125 115.708 463.125 116.523V117.091H456.398V115.932H461.761C461.761 115.439 461.663 115 461.466 114.614C461.273 114.227 460.996 113.922 460.636 113.699C460.28 113.475 459.86 113.364 459.375 113.364C458.841 113.364 458.379 113.496 457.989 113.761C457.602 114.023 457.305 114.364 457.097 114.784C456.888 115.205 456.784 115.655 456.784 116.136V116.909C456.784 117.568 456.898 118.127 457.125 118.585C457.356 119.04 457.676 119.386 458.085 119.625C458.494 119.86 458.97 119.977 459.511 119.977C459.864 119.977 460.182 119.928 460.466 119.83C460.754 119.727 461.002 119.576 461.21 119.375C461.419 119.17 461.58 118.917 461.693 118.614L462.989 118.977C462.852 119.417 462.623 119.803 462.301 120.136C461.979 120.466 461.581 120.723 461.108 120.909C460.634 121.091 460.102 121.182 459.511 121.182ZM465.165 121V112.273H466.46V113.591H466.551C466.71 113.159 466.998 112.809 467.415 112.54C467.831 112.271 468.301 112.136 468.824 112.136C468.922 112.136 469.045 112.138 469.193 112.142C469.341 112.146 469.453 112.152 469.528 112.159V113.523C469.483 113.511 469.379 113.494 469.216 113.472C469.057 113.445 468.888 113.432 468.71 113.432C468.286 113.432 467.907 113.521 467.574 113.699C467.244 113.873 466.983 114.116 466.79 114.426C466.6 114.733 466.506 115.083 466.506 115.477V121H465.165ZM474.511 121.182C473.67 121.182 472.945 120.996 472.335 120.625C471.729 120.25 471.261 119.727 470.932 119.057C470.606 118.383 470.443 117.598 470.443 116.705C470.443 115.811 470.606 115.023 470.932 114.341C471.261 113.655 471.72 113.121 472.307 112.739C472.898 112.352 473.587 112.159 474.375 112.159C474.83 112.159 475.278 112.235 475.722 112.386C476.165 112.538 476.568 112.784 476.932 113.125C477.295 113.462 477.585 113.909 477.801 114.466C478.017 115.023 478.125 115.708 478.125 116.523V117.091H471.398V115.932H476.761C476.761 115.439 476.663 115 476.466 114.614C476.273 114.227 475.996 113.922 475.636 113.699C475.28 113.475 474.86 113.364 474.375 113.364C473.841 113.364 473.379 113.496 472.989 113.761C472.602 114.023 472.305 114.364 472.097 114.784C471.888 115.205 471.784 115.655 471.784 116.136V116.909C471.784 117.568 471.898 118.127 472.125 118.585C472.356 119.04 472.676 119.386 473.085 119.625C473.494 119.86 473.97 119.977 474.511 119.977C474.864 119.977 475.182 119.928 475.466 119.83C475.754 119.727 476.002 119.576 476.21 119.375C476.419 119.17 476.58 118.917 476.693 118.614L477.989 118.977C477.852 119.417 477.623 119.803 477.301 120.136C476.979 120.466 476.581 120.723 476.108 120.909C475.634 121.091 475.102 121.182 474.511 121.182ZM488.46 112.273V113.409H483.938V112.273H488.46ZM485.256 110.182H486.597V118.5C486.597 118.879 486.652 119.163 486.761 119.352C486.875 119.538 487.019 119.663 487.193 119.727C487.371 119.788 487.559 119.818 487.756 119.818C487.903 119.818 488.025 119.811 488.119 119.795C488.214 119.777 488.29 119.761 488.347 119.75L488.619 120.955C488.528 120.989 488.402 121.023 488.239 121.057C488.076 121.095 487.869 121.114 487.619 121.114C487.241 121.114 486.869 121.032 486.506 120.869C486.146 120.706 485.847 120.458 485.608 120.125C485.373 119.792 485.256 119.371 485.256 118.864V110.182ZM493.929 121.182C493.141 121.182 492.45 120.994 491.855 120.619C491.264 120.244 490.802 119.72 490.469 119.045C490.139 118.371 489.974 117.583 489.974 116.682C489.974 115.773 490.139 114.979 490.469 114.301C490.802 113.623 491.264 113.097 491.855 112.722C492.45 112.347 493.141 112.159 493.929 112.159C494.717 112.159 495.406 112.347 495.997 112.722C496.592 113.097 497.054 113.623 497.384 114.301C497.717 114.979 497.884 115.773 497.884 116.682C497.884 117.583 497.717 118.371 497.384 119.045C497.054 119.72 496.592 120.244 495.997 120.619C495.406 120.994 494.717 121.182 493.929 121.182ZM493.929 119.977C494.527 119.977 495.02 119.824 495.406 119.517C495.793 119.21 496.079 118.807 496.264 118.307C496.45 117.807 496.543 117.265 496.543 116.682C496.543 116.098 496.45 115.555 496.264 115.051C496.079 114.547 495.793 114.14 495.406 113.83C495.02 113.519 494.527 113.364 493.929 113.364C493.33 113.364 492.838 113.519 492.452 113.83C492.065 114.14 491.779 114.547 491.594 115.051C491.408 115.555 491.315 116.098 491.315 116.682C491.315 117.265 491.408 117.807 491.594 118.307C491.779 118.807 492.065 119.21 492.452 119.517C492.838 119.824 493.33 119.977 493.929 119.977ZM510.612 114.227L509.408 114.568C509.332 114.367 509.22 114.172 509.072 113.983C508.929 113.79 508.732 113.631 508.482 113.506C508.232 113.381 507.911 113.318 507.521 113.318C506.987 113.318 506.542 113.441 506.186 113.688C505.834 113.93 505.658 114.239 505.658 114.614C505.658 114.947 505.779 115.21 506.021 115.403C506.264 115.597 506.643 115.758 507.158 115.886L508.453 116.205C509.233 116.394 509.815 116.684 510.197 117.074C510.58 117.46 510.771 117.958 510.771 118.568C510.771 119.068 510.627 119.515 510.339 119.909C510.055 120.303 509.658 120.614 509.146 120.841C508.635 121.068 508.04 121.182 507.362 121.182C506.472 121.182 505.735 120.989 505.152 120.602C504.569 120.216 504.199 119.652 504.044 118.909L505.317 118.591C505.438 119.061 505.667 119.413 506.004 119.648C506.345 119.883 506.79 120 507.339 120C507.964 120 508.461 119.867 508.828 119.602C509.199 119.333 509.385 119.011 509.385 118.636C509.385 118.333 509.279 118.08 509.067 117.875C508.855 117.667 508.529 117.511 508.089 117.409L506.635 117.068C505.836 116.879 505.249 116.585 504.874 116.188C504.502 115.786 504.317 115.284 504.317 114.682C504.317 114.189 504.455 113.754 504.732 113.375C505.012 112.996 505.393 112.699 505.874 112.483C506.358 112.267 506.908 112.159 507.521 112.159C508.385 112.159 509.063 112.348 509.555 112.727C510.052 113.106 510.404 113.606 510.612 114.227ZM516.585 112.273V113.409H512.062V112.273H516.585ZM513.381 110.182H514.722V118.5C514.722 118.879 514.777 119.163 514.886 119.352C515 119.538 515.144 119.663 515.318 119.727C515.496 119.788 515.684 119.818 515.881 119.818C516.028 119.818 516.15 119.811 516.244 119.795C516.339 119.777 516.415 119.761 516.472 119.75L516.744 120.955C516.653 120.989 516.527 121.023 516.364 121.057C516.201 121.095 515.994 121.114 515.744 121.114C515.366 121.114 514.994 121.032 514.631 120.869C514.271 120.706 513.972 120.458 513.733 120.125C513.498 119.792 513.381 119.371 513.381 118.864V110.182ZM521.17 121.205C520.617 121.205 520.116 121.1 519.665 120.892C519.214 120.68 518.856 120.375 518.591 119.977C518.326 119.576 518.193 119.091 518.193 118.523C518.193 118.023 518.292 117.617 518.489 117.307C518.686 116.992 518.949 116.746 519.278 116.568C519.608 116.39 519.972 116.258 520.369 116.17C520.771 116.08 521.174 116.008 521.58 115.955C522.11 115.886 522.54 115.835 522.869 115.801C523.203 115.763 523.445 115.701 523.597 115.614C523.752 115.527 523.83 115.375 523.83 115.159V115.114C523.83 114.553 523.676 114.117 523.369 113.807C523.066 113.496 522.606 113.341 521.989 113.341C521.348 113.341 520.847 113.481 520.483 113.761C520.119 114.042 519.864 114.341 519.716 114.659L518.443 114.205C518.67 113.674 518.973 113.261 519.352 112.966C519.735 112.667 520.152 112.458 520.602 112.341C521.057 112.22 521.504 112.159 521.943 112.159C522.223 112.159 522.545 112.193 522.909 112.261C523.277 112.326 523.631 112.46 523.972 112.665C524.316 112.869 524.602 113.178 524.83 113.591C525.057 114.004 525.17 114.557 525.17 115.25V121H523.83V119.818H523.761C523.67 120.008 523.519 120.21 523.307 120.426C523.095 120.642 522.813 120.826 522.46 120.977C522.108 121.129 521.678 121.205 521.17 121.205ZM521.375 120C521.905 120 522.352 119.896 522.716 119.688C523.083 119.479 523.36 119.21 523.545 118.881C523.735 118.551 523.83 118.205 523.83 117.841V116.614C523.773 116.682 523.648 116.744 523.455 116.801C523.265 116.854 523.045 116.902 522.795 116.943C522.549 116.981 522.309 117.015 522.074 117.045C521.843 117.072 521.655 117.095 521.511 117.114C521.163 117.159 520.837 117.233 520.534 117.335C520.235 117.434 519.992 117.583 519.807 117.784C519.625 117.981 519.534 118.25 519.534 118.591C519.534 119.057 519.706 119.409 520.051 119.648C520.4 119.883 520.841 120 521.375 120ZM527.618 121V112.273H528.913V113.591H529.004C529.163 113.159 529.451 112.809 529.868 112.54C530.285 112.271 530.754 112.136 531.277 112.136C531.375 112.136 531.499 112.138 531.646 112.142C531.794 112.146 531.906 112.152 531.982 112.159V113.523C531.936 113.511 531.832 113.494 531.669 113.472C531.51 113.445 531.341 113.432 531.163 113.432C530.739 113.432 530.36 113.521 530.027 113.699C529.697 113.873 529.436 114.116 529.243 114.426C529.054 114.733 528.959 115.083 528.959 115.477V121H527.618ZM537.913 112.273V113.409H533.391V112.273H537.913ZM534.709 110.182H536.05V118.5C536.05 118.879 536.105 119.163 536.214 119.352C536.328 119.538 536.472 119.663 536.646 119.727C536.824 119.788 537.012 119.818 537.209 119.818C537.357 119.818 537.478 119.811 537.572 119.795C537.667 119.777 537.743 119.761 537.8 119.75L538.072 120.955C537.982 120.989 537.855 121.023 537.692 121.057C537.529 121.095 537.322 121.114 537.072 121.114C536.694 121.114 536.322 121.032 535.959 120.869C535.599 120.706 535.3 120.458 535.061 120.125C534.826 119.792 534.709 119.371 534.709 118.864V110.182Z" fill="black"/>
<rect x="1" y="1" width="785" height="173" rx="19" stroke="#0D6EFD" stroke-width="2" stroke-dasharray="4 4"/>
</svg>
