<svg width="311" height="198" viewBox="0 0 311 198" fill="none" xmlns="http://www.w3.org/2000/svg">
<path d="M30.6372 162.825H308.6" stroke="black"/>
<path d="M58.4336 168.735V162.825" stroke="black"/>
<path d="M58.4335 189.247C57.7915 189.247 57.2446 189.072 56.7929 188.722C56.3412 188.37 55.996 187.86 55.7574 187.193C55.5187 186.522 55.3994 185.712 55.3994 184.764C55.3994 183.82 55.5187 183.015 55.7574 182.347C55.9988 181.677 56.3454 181.166 56.7971 180.813C57.2517 180.458 57.7971 180.281 58.4335 180.281C59.0699 180.281 59.6139 180.458 60.0656 180.813C60.5201 181.166 60.8667 181.677 61.1054 182.347C61.3469 183.015 61.4676 183.82 61.4676 184.764C61.4676 185.712 61.3483 186.522 61.1096 187.193C60.871 187.86 60.5258 188.37 60.0741 188.722C59.6224 189.072 59.0755 189.247 58.4335 189.247ZM58.4335 188.309C59.0699 188.309 59.5642 188.002 59.9165 187.389C60.2687 186.775 60.4449 185.9 60.4449 184.764C60.4449 184.008 60.3639 183.364 60.202 182.833C60.0429 182.302 59.8128 181.897 59.5116 181.619C59.2133 181.34 58.854 181.201 58.4335 181.201C57.8028 181.201 57.3099 181.512 56.9548 182.134C56.5997 182.754 56.4221 183.63 56.4221 184.764C56.4221 185.519 56.5017 186.161 56.6608 186.69C56.8199 187.218 57.0486 187.62 57.3469 187.896C57.648 188.171 58.0102 188.309 58.4335 188.309Z" fill="black"/>
<path d="M114.026 168.735V162.825" stroke="black"/>
<path d="M115.208 180.4V189.127H114.152V181.508H114.1L111.97 182.923V181.849L114.152 180.4H115.208Z" fill="black"/>
<path d="M169.619 168.735V162.825" stroke="black"/>
<path d="M166.889 189.127V188.36L169.77 185.207C170.108 184.837 170.386 184.516 170.605 184.244C170.824 183.968 170.986 183.71 171.091 183.468C171.199 183.224 171.253 182.968 171.253 182.701C171.253 182.394 171.179 182.129 171.031 181.904C170.886 181.68 170.687 181.506 170.435 181.384C170.182 181.262 169.898 181.201 169.582 181.201C169.247 181.201 168.954 181.271 168.704 181.41C168.457 181.546 168.266 181.738 168.129 181.985C167.996 182.232 167.929 182.522 167.929 182.854H166.923C166.923 182.343 167.041 181.894 167.277 181.508C167.513 181.122 167.834 180.82 168.24 180.604C168.649 180.389 169.108 180.281 169.616 180.281C170.128 180.281 170.581 180.389 170.976 180.604C171.371 180.82 171.68 181.112 171.905 181.478C172.129 181.845 172.241 182.252 172.241 182.701C172.241 183.022 172.183 183.336 172.067 183.643C171.953 183.947 171.754 184.286 171.47 184.661C171.189 185.033 170.798 185.488 170.298 186.025L168.338 188.122V188.19H172.395V189.127H166.889Z" fill="black"/>
<path d="M225.211 168.735V162.825" stroke="black"/>
<path d="M225.243 189.247C224.68 189.247 224.179 189.15 223.739 188.957C223.301 188.764 222.953 188.495 222.695 188.151C222.439 187.805 222.3 187.403 222.277 186.945H223.351C223.373 187.227 223.47 187.47 223.641 187.674C223.811 187.876 224.034 188.032 224.31 188.143C224.585 188.254 224.891 188.309 225.226 188.309C225.601 188.309 225.933 188.244 226.223 188.113C226.513 187.982 226.74 187.8 226.905 187.568C227.07 187.335 227.152 187.065 227.152 186.758C227.152 186.437 227.072 186.154 226.913 185.91C226.754 185.663 226.521 185.47 226.214 185.33C225.908 185.191 225.533 185.122 225.089 185.122H224.391V184.184H225.089C225.436 184.184 225.74 184.122 226.001 183.997C226.266 183.872 226.471 183.695 226.619 183.468C226.77 183.241 226.845 182.974 226.845 182.667C226.845 182.372 226.78 182.114 226.649 181.896C226.518 181.677 226.334 181.506 226.095 181.384C225.859 181.262 225.581 181.201 225.26 181.201C224.959 181.201 224.675 181.256 224.408 181.367C224.143 181.475 223.927 181.633 223.76 181.84C223.592 182.045 223.501 182.292 223.487 182.582H222.464C222.481 182.124 222.619 181.724 222.878 181.38C223.136 181.033 223.474 180.764 223.892 180.57C224.312 180.377 224.774 180.281 225.277 180.281C225.817 180.281 226.28 180.39 226.666 180.609C227.052 180.825 227.349 181.11 227.557 181.465C227.764 181.82 227.868 182.204 227.868 182.616C227.868 183.107 227.739 183.526 227.48 183.873C227.224 184.22 226.876 184.46 226.436 184.593V184.661C226.987 184.752 227.418 184.987 227.727 185.364C228.037 185.739 228.192 186.204 228.192 186.758C228.192 187.232 228.062 187.658 227.804 188.036C227.548 188.411 227.199 188.707 226.756 188.923C226.312 189.139 225.808 189.247 225.243 189.247Z" fill="black"/>
<path d="M280.804 168.735V162.825" stroke="black"/>
<path d="M277.653 187.337V186.468L281.488 180.4H282.119V181.747H281.693L278.795 186.332V186.4H283.96V187.337H277.653ZM281.761 189.127V187.073V186.668V180.4H282.767V189.127H281.761Z" fill="black"/>
<path d="M30.6372 5.22499V162.825" stroke="black"/>
<path d="M27.8481 162.825H30.6371" stroke="black"/>
<path d="M21.7742 167.32C21.1322 167.32 20.5853 167.146 20.1336 166.796C19.6819 166.444 19.3367 165.934 19.0981 165.266C18.8595 164.596 18.7401 163.786 18.7401 162.837C18.7401 161.894 18.8595 161.089 19.0981 160.421C19.3396 159.751 19.6862 159.239 20.1379 158.887C20.5924 158.532 21.1379 158.355 21.7742 158.355C22.4106 158.355 22.9546 158.532 23.4063 158.887C23.8609 159.239 24.2075 159.751 24.4461 160.421C24.6876 161.089 24.8083 161.894 24.8083 162.837C24.8083 163.786 24.689 164.596 24.4504 165.266C24.2117 165.934 23.8666 166.444 23.4149 166.796C22.9631 167.146 22.4163 167.32 21.7742 167.32ZM21.7742 166.383C22.4106 166.383 22.9049 166.076 23.2572 165.462C23.6095 164.849 23.7856 163.974 23.7856 162.837C23.7856 162.082 23.7046 161.438 23.5427 160.907C23.3836 160.376 23.1535 159.971 22.8524 159.693C22.5541 159.414 22.1947 159.275 21.7742 159.275C21.1435 159.275 20.6506 159.586 20.2955 160.208C19.9404 160.828 19.7629 161.704 19.7629 162.837C19.7629 163.593 19.8424 164.235 20.0015 164.764C20.1606 165.292 20.3893 165.694 20.6876 165.97C20.9887 166.245 21.3509 166.383 21.7742 166.383Z" fill="black"/>
<path d="M27.8486 123.425H30.6376" stroke="black"/>
<path d="M19.1621 127.801V127.034L22.0428 123.881C22.3809 123.511 22.6593 123.19 22.8781 122.918C23.0968 122.642 23.2587 122.383 23.3639 122.142C23.4718 121.898 23.5258 121.642 23.5258 121.375C23.5258 121.068 23.4519 120.803 23.3042 120.578C23.1593 120.354 22.9604 120.18 22.7076 120.058C22.4548 119.936 22.1707 119.875 21.8553 119.875C21.5201 119.875 21.2275 119.945 20.9775 120.084C20.7303 120.22 20.5386 120.412 20.4022 120.659C20.2687 120.906 20.2019 121.196 20.2019 121.528H19.1962C19.1962 121.017 19.3141 120.568 19.5499 120.182C19.7857 119.795 20.1068 119.494 20.513 119.278C20.9221 119.062 21.3809 118.954 21.8894 118.954C22.4008 118.954 22.8539 119.062 23.2488 119.278C23.6437 119.494 23.9533 119.785 24.1778 120.152C24.4022 120.518 24.5144 120.926 24.5144 121.375C24.5144 121.696 24.4562 122.01 24.3397 122.317C24.2261 122.621 24.0272 122.96 23.7431 123.335C23.4619 123.707 23.0712 124.162 22.5712 124.699L20.611 126.795V126.864H24.6678V127.801H19.1621ZM21.8543 142.92C21.3543 142.92 20.904 142.821 20.5034 142.622C20.1028 142.423 19.7818 142.151 19.5403 141.804C19.2989 141.457 19.1668 141.062 19.144 140.619H20.1668C20.2065 141.014 20.3855 141.341 20.7037 141.599C21.0247 141.855 21.4082 141.983 21.8543 141.983C22.2122 141.983 22.5304 141.899 22.8088 141.731C23.0901 141.564 23.3102 141.334 23.4693 141.041C23.6313 140.746 23.7122 140.412 23.7122 140.04C23.7122 139.659 23.6284 139.32 23.4608 139.021C23.296 138.72 23.0688 138.483 22.779 138.31C22.4892 138.136 22.1582 138.048 21.7861 138.045C21.519 138.043 21.2449 138.084 20.9636 138.169C20.6824 138.251 20.4509 138.358 20.269 138.489L19.2804 138.369L19.8088 134.074H24.3429V135.011H20.6952L20.3884 137.585H20.4395C20.6185 137.443 20.8429 137.325 21.1128 137.231C21.3827 137.138 21.6639 137.091 21.9565 137.091C22.4906 137.091 22.9665 137.219 23.3841 137.474C23.8045 137.727 24.1341 138.074 24.3727 138.514C24.6142 138.954 24.7349 139.457 24.7349 140.023C24.7349 140.579 24.6099 141.077 24.3599 141.514C24.1128 141.949 23.7719 142.293 23.3372 142.545C22.9026 142.795 22.4082 142.92 21.8543 142.92ZM21.7744 157.92C21.1323 157.92 20.5854 157.746 20.1337 157.396C19.682 157.044 19.3369 156.534 19.0982 155.866C18.8596 155.196 18.7403 154.386 18.7403 153.437C18.7403 152.494 18.8596 151.689 19.0982 151.021C19.3397 150.351 19.6863 149.839 20.138 149.487C20.5925 149.132 21.138 148.954 21.7744 148.954C22.4107 148.954 22.9548 149.132 23.4065 149.487C23.861 149.839 24.2076 150.351 24.4462 151.021C24.6877 151.689 24.8085 152.494 24.8085 153.437C24.8085 154.386 24.6891 155.196 24.4505 155.866C24.2119 156.534 23.8667 157.044 23.415 157.396C22.9633 157.746 22.4164 157.92 21.7744 157.92ZM21.7744 156.983C22.4107 156.983 22.905 156.676 23.2573 156.062C23.6096 155.449 23.7857 154.574 23.7857 153.437C23.7857 152.682 23.7048 152.038 23.5428 151.507C23.3837 150.976 23.1536 150.571 22.8525 150.293C22.5542 150.014 22.1948 149.875 21.7744 149.875C21.1437 149.875 20.6508 150.186 20.2957 150.808C19.9406 151.428 19.763 152.304 19.763 153.437C19.763 154.193 19.8425 154.835 20.0016 155.364C20.1607 155.892 20.3894 156.294 20.6877 156.57C20.9889 156.845 21.3511 156.983 21.7744 156.983Z" fill="black"/>
<path d="M27.8486 84.025H30.6376" stroke="black"/>
<path d="M21.8543 88.5204C21.3543 88.5204 20.904 88.421 20.5034 88.2221C20.1028 88.0233 19.7818 87.7505 19.5403 87.4039C19.2989 87.0573 19.1668 86.6625 19.144 86.2193H20.1668C20.2065 86.6142 20.3855 86.9409 20.7037 87.1994C21.0247 87.4551 21.4082 87.5829 21.8543 87.5829C22.2122 87.5829 22.5304 87.4991 22.8088 87.3315C23.0901 87.1639 23.3102 86.9338 23.4693 86.6411C23.6313 86.3457 23.7122 86.0119 23.7122 85.6397C23.7122 85.259 23.6284 84.9196 23.4608 84.6213C23.296 84.3201 23.0688 84.0829 22.779 83.9096C22.4892 83.7363 22.1582 83.6483 21.7861 83.6454C21.519 83.6426 21.2449 83.6838 20.9636 83.769C20.6824 83.8514 20.4509 83.9579 20.269 84.0886L19.2804 83.9693L19.8088 79.6738H24.3429V80.6113H20.6952L20.3884 83.1852H20.4395C20.6185 83.0431 20.8429 82.9252 21.1128 82.8315C21.3827 82.7377 21.6639 82.6909 21.9565 82.6909C22.4906 82.6909 22.9665 82.8187 23.3841 83.0744C23.8045 83.3272 24.1341 83.6738 24.3727 84.1142C24.6142 84.5545 24.7349 85.0573 24.7349 85.6227C24.7349 86.1795 24.6099 86.6767 24.3599 87.1142C24.1128 87.5488 23.7719 87.8926 23.3372 88.1454C22.9026 88.3954 22.4082 88.5204 21.8543 88.5204ZM21.7744 103.52C21.1323 103.52 20.5854 103.346 20.1337 102.996C19.682 102.644 19.3369 102.134 19.0982 101.466C18.8596 100.796 18.7403 99.9863 18.7403 99.0375C18.7403 98.0943 18.8596 97.2889 19.0982 96.6213C19.3397 95.9508 19.6863 95.4394 20.138 95.0872C20.5925 94.7321 21.138 94.5545 21.7744 94.5545C22.4107 94.5545 22.9548 94.7321 23.4065 95.0872C23.861 95.4394 24.2076 95.9508 24.4462 96.6213C24.6877 97.2889 24.8085 98.0943 24.8085 99.0375C24.8085 99.9863 24.6891 100.796 24.4505 101.466C24.2119 102.134 23.8667 102.644 23.415 102.996C22.9633 103.346 22.4164 103.52 21.7744 103.52ZM21.7744 102.583C22.4107 102.583 22.905 102.276 23.2573 101.662C23.6096 101.049 23.7857 100.174 23.7857 99.0375C23.7857 98.2818 23.7048 97.6383 23.5428 97.1071C23.3837 96.5758 23.1536 96.171 22.8525 95.8926C22.5542 95.6142 22.1948 95.475 21.7744 95.475C21.1437 95.475 20.6508 95.786 20.2957 96.4082C19.9406 97.0275 19.763 97.9039 19.763 99.0375C19.763 99.7931 19.8425 100.435 20.0016 100.964C20.1607 101.492 20.3894 101.894 20.6877 102.17C20.9889 102.445 21.3511 102.583 21.7744 102.583ZM21.7744 118.52C21.1323 118.52 20.5854 118.346 20.1337 117.996C19.682 117.644 19.3369 117.134 19.0982 116.466C18.8596 115.796 18.7403 114.986 18.7403 114.037C18.7403 113.094 18.8596 112.289 19.0982 111.621C19.3397 110.951 19.6863 110.439 20.138 110.087C20.5925 109.732 21.138 109.555 21.7744 109.555C22.4107 109.555 22.9548 109.732 23.4065 110.087C23.861 110.439 24.2076 110.951 24.4462 111.621C24.6877 112.289 24.8085 113.094 24.8085 114.037C24.8085 114.986 24.6891 115.796 24.4505 116.466C24.2119 117.134 23.8667 117.644 23.415 117.996C22.9633 118.346 22.4164 118.52 21.7744 118.52ZM21.7744 117.583C22.4107 117.583 22.905 117.276 23.2573 116.662C23.6096 116.049 23.7857 115.174 23.7857 114.037C23.7857 113.282 23.7048 112.638 23.5428 112.107C23.3837 111.576 23.1536 111.171 22.8525 110.893C22.5542 110.614 22.1948 110.475 21.7744 110.475C21.1437 110.475 20.6508 110.786 20.2957 111.408C19.9406 112.028 19.763 112.904 19.763 114.037C19.763 114.793 19.8425 115.435 20.0016 115.964C20.1607 116.492 20.3894 116.894 20.6877 117.17C20.9889 117.445 21.3511 117.583 21.7744 117.583Z" fill="black"/>
<path d="M27.8486 44.625H30.6376" stroke="black"/>
<path d="M19.9622 49.0011L23.8657 41.2795V41.2113H19.3657V40.2738H24.9566V41.2625L21.0702 49.0011H19.9622ZM21.8543 64.1204C21.3543 64.1204 20.904 64.021 20.5034 63.8221C20.1029 63.6233 19.7818 63.3505 19.5404 63.0039C19.2989 62.6573 19.1668 62.2625 19.1441 61.8193H20.1668C20.2066 62.2142 20.3855 62.5409 20.7037 62.7994C21.0247 63.0551 21.4083 63.1829 21.8543 63.1829C22.2122 63.1829 22.5304 63.0991 22.8088 62.9315C23.0901 62.7639 23.3103 62.5338 23.4693 62.2412C23.6313 61.9457 23.7122 61.6119 23.7122 61.2397C23.7122 60.8591 23.6284 60.5196 23.4608 60.2213C23.296 59.9201 23.0688 59.6829 22.779 59.5096C22.4892 59.3363 22.1583 59.2483 21.7861 59.2454C21.5191 59.2426 21.2449 59.2838 20.9637 59.369C20.6824 59.4514 20.4509 59.5579 20.2691 59.6886L19.2804 59.5693L19.8088 55.2738H24.3429V56.2113H20.6952L20.3884 58.7852H20.4395C20.6185 58.6431 20.8429 58.5252 21.1128 58.4315C21.3827 58.3377 21.6639 58.2909 21.9566 58.2909C22.4907 58.2909 22.9665 58.4187 23.3841 58.6744C23.8046 58.9272 24.1341 59.2738 24.3728 59.7142C24.6142 60.1545 24.735 60.6573 24.735 61.2227C24.735 61.7795 24.61 62.2767 24.36 62.7142C24.1128 63.1488 23.7719 63.4926 23.3372 63.7454C22.9026 63.9954 22.4083 64.1204 21.8543 64.1204ZM21.7744 79.1204C21.1323 79.1204 20.5855 78.9457 20.1338 78.5963C19.6821 78.244 19.3369 77.7341 19.0983 77.0664C18.8596 76.396 18.7403 75.5863 18.7403 74.6375C18.7403 73.6943 18.8596 72.8889 19.0983 72.2213C19.3397 71.5508 19.6863 71.0395 20.138 70.6872C20.5926 70.3321 21.138 70.1545 21.7744 70.1545C22.4108 70.1545 22.9548 70.3321 23.4065 70.6872C23.861 71.0395 24.2076 71.5508 24.4463 72.2213C24.6877 72.8889 24.8085 73.6943 24.8085 74.6375C24.8085 75.5863 24.6892 76.396 24.4505 77.0664C24.2119 77.7341 23.8667 78.244 23.415 78.5963C22.9633 78.9457 22.4164 79.1204 21.7744 79.1204ZM21.7744 78.1829C22.4108 78.1829 22.9051 77.8761 23.2573 77.2625C23.6096 76.6488 23.7858 75.7738 23.7858 74.6375C23.7858 73.8818 23.7048 73.2383 23.5429 72.7071C23.3838 72.1758 23.1536 71.771 22.8525 71.4926C22.5542 71.2142 22.1948 71.075 21.7744 71.075C21.1437 71.075 20.6508 71.386 20.2957 72.0082C19.9406 72.6275 19.763 73.5039 19.763 74.6375C19.763 75.3931 19.8426 76.0352 20.0017 76.5636C20.1608 77.092 20.3894 77.494 20.6877 77.7696C20.9889 78.0451 21.3511 78.1829 21.7744 78.1829Z" fill="black"/>
<path d="M27.8481 5.22499H30.6371" stroke="black"/>
<path d="M16.4177 5.0062V13.7335H15.3609V6.11416H15.3097L13.1791 7.52893V6.45507L15.3609 5.0062H16.4177ZM21.7742 13.8528C21.1322 13.8528 20.5853 13.6781 20.1336 13.3286C19.6819 12.9764 19.3367 12.4664 19.0981 11.7988C18.8595 11.1284 18.7401 10.3187 18.7401 9.36984C18.7401 8.42666 18.8595 7.62126 19.0981 6.95364C19.3396 6.28319 19.6862 5.77183 20.1379 5.41955C20.5924 5.06444 21.1379 4.88688 21.7742 4.88688C22.4106 4.88688 22.9546 5.06444 23.4063 5.41955C23.8609 5.77183 24.2075 6.28319 24.4461 6.95364C24.6876 7.62126 24.8083 8.42666 24.8083 9.36984C24.8083 10.3187 24.689 11.1284 24.4504 11.7988C24.2117 12.4664 23.8666 12.9764 23.4148 13.3286C22.9631 13.6781 22.4163 13.8528 21.7742 13.8528ZM21.7742 12.9153C22.4106 12.9153 22.9049 12.6085 23.2572 11.9948C23.6095 11.3812 23.7856 10.5062 23.7856 9.36984C23.7856 8.61416 23.7046 7.97069 23.5427 7.43944C23.3836 6.90819 23.1535 6.50336 22.8523 6.22495C22.5541 5.94654 22.1947 5.80734 21.7742 5.80734C21.1435 5.80734 20.6506 6.11842 20.2955 6.74058C19.9404 7.35989 19.7629 8.23632 19.7629 9.36984C19.7629 10.1255 19.8424 10.7676 20.0015 11.296C20.1606 11.8244 20.3893 12.2264 20.6876 12.5019C20.9887 12.7775 21.3509 12.9153 21.7742 12.9153ZM21.7742 28.8528C21.1322 28.8528 20.5853 28.6781 20.1336 28.3286C19.6819 27.9764 19.3367 27.4664 19.0981 26.7988C18.8595 26.1284 18.7401 25.3187 18.7401 24.3698C18.7401 23.4267 18.8595 22.6213 19.0981 21.9536C19.3396 21.2832 19.6862 20.7718 20.1379 20.4196C20.5924 20.0644 21.1379 19.8869 21.7742 19.8869C22.4106 19.8869 22.9546 20.0644 23.4063 20.4196C23.8609 20.7718 24.2075 21.2832 24.4461 21.9536C24.6876 22.6213 24.8083 23.4267 24.8083 24.3698C24.8083 25.3187 24.689 26.1284 24.4504 26.7988C24.2117 27.4664 23.8666 27.9764 23.4148 28.3286C22.9631 28.6781 22.4163 28.8528 21.7742 28.8528ZM21.7742 27.9153C22.4106 27.9153 22.9049 27.6085 23.2572 26.9948C23.6095 26.3812 23.7856 25.5062 23.7856 24.3698C23.7856 23.6142 23.7046 22.9707 23.5427 22.4394C23.3836 21.9082 23.1535 21.5034 22.8523 21.225C22.5541 20.9465 22.1947 20.8073 21.7742 20.8073C21.1435 20.8073 20.6506 21.1184 20.2955 21.7406C19.9404 22.3599 19.7629 23.2363 19.7629 24.3698C19.7629 25.1255 19.8424 25.7676 20.0015 26.296C20.1606 26.8244 20.3893 27.2264 20.6876 27.5019C20.9887 27.7775 21.3509 27.9153 21.7742 27.9153ZM21.7742 43.8528C21.1322 43.8528 20.5853 43.6781 20.1336 43.3286C19.6819 42.9764 19.3367 42.4664 19.0981 41.7988C18.8595 41.1284 18.7401 40.3187 18.7401 39.3698C18.7401 38.4267 18.8595 37.6213 19.0981 36.9536C19.3396 36.2832 19.6862 35.7718 20.1379 35.4196C20.5924 35.0644 21.1379 34.8869 21.7742 34.8869C22.4106 34.8869 22.9546 35.0644 23.4063 35.4196C23.8609 35.7718 24.2075 36.2832 24.4461 36.9536C24.6876 37.6213 24.8083 38.4267 24.8083 39.3698C24.8083 40.3187 24.689 41.1284 24.4504 41.7988C24.2117 42.4664 23.8666 42.9764 23.4148 43.3286C22.9631 43.6781 22.4163 43.8528 21.7742 43.8528ZM21.7742 42.9153C22.4106 42.9153 22.9049 42.6085 23.2572 41.9948C23.6095 41.3812 23.7856 40.5062 23.7856 39.3698C23.7856 38.6142 23.7046 37.9707 23.5427 37.4394C23.3836 36.9082 23.1535 36.5034 22.8523 36.225C22.5541 35.9465 22.1947 35.8073 21.7742 35.8073C21.1435 35.8073 20.6506 36.1184 20.2955 36.7406C19.9404 37.3599 19.7629 38.2363 19.7629 39.3698C19.7629 40.1255 19.8424 40.7676 20.0015 41.296C20.1606 41.8244 20.3893 42.2264 20.6876 42.5019C20.9887 42.7775 21.3509 42.9153 21.7742 42.9153Z" fill="black"/>
<path d="M30.6372 162.825H308.6" stroke="#CCCCCC"/>
<path d="M30.6372 123.425H308.6" stroke="#CCCCCC"/>
<path d="M30.6372 84.025H308.6" stroke="#CCCCCC"/>
<path d="M30.6372 44.625H308.6" stroke="#CCCCCC"/>
<path d="M30.6372 5.22499H308.6" stroke="#CCCCCC"/>
<path d="M58.4336 5.22499V162.825" stroke="#CCCCCC"/>
<path d="M114.026 5.22499V162.825" stroke="#CCCCCC"/>
<path d="M169.619 5.22499V162.825" stroke="#CCCCCC"/>
<path d="M225.211 5.22499V162.825" stroke="#CCCCCC"/>
<path d="M280.804 5.22499V162.825" stroke="#CCCCCC"/>
<path d="M30.6372 5.22499V162.825" stroke="#CCCCCC"/>
<path d="M308.6 5.22499V162.825" stroke="#CCCCCC"/>
<path d="M36.1963 24.137H57.1132V162.825H36.1963V24.137Z" fill="#0944B5"/>
<path d="M91.7886 40.5274H112.705V162.825H91.7886V40.5274Z" fill="#0944B5"/>
<path d="M147.381 133.196H168.298V162.825H147.381V133.196Z" fill="#0944B5"/>
<path d="M202.974 96.633H223.891V162.825H202.974V96.633Z" fill="#0944B5"/>
<path d="M258.566 40.5274H279.483V162.825H258.566V40.5274Z" fill="#0944B5"/>
<path d="M58.9727 81.9762H79.8896V162.825H58.9727V81.9762Z" fill="#D3E886"/>
<path d="M114.565 46.5162H135.482V162.825H114.565V46.5162Z" fill="#D3E886"/>
<path d="M170.158 114.599H191.075V162.825H170.158V114.599Z" fill="#D3E886"/>
<path d="M225.75 81.9762H246.667V162.825H225.75V81.9762Z" fill="#D3E886"/>
<path d="M281.343 43.3642H302.26V162.825H281.343V43.3642Z" fill="#D3E886"/>
</svg>
