<svg width="143" height="43" viewBox="0 0 143 43" fill="none" xmlns="http://www.w3.org/2000/svg">
<path d="M63.056 37.3496C62.88 36.7736 62.68 36.1816 62.456 35.5736C62.248 34.9656 62.04 34.3576 61.832 33.7496H55.352C55.144 34.3576 54.928 34.9656 54.704 35.5736C54.496 36.1816 54.304 36.7736 54.128 37.3496H50.24C50.864 35.5576 51.456 33.9016 52.016 32.3816C52.576 30.8616 53.12 29.4296 53.648 28.0856C54.192 26.7416 54.72 25.4696 55.232 24.2696C55.76 23.0536 56.304 21.8696 56.864 20.7176H60.44C60.984 21.8696 61.52 23.0536 62.048 24.2696C62.576 25.4696 63.104 26.7416 63.632 28.0856C64.176 29.4296 64.728 30.8616 65.288 32.3816C65.848 33.9016 66.44 35.5576 67.064 37.3496H63.056ZM58.568 24.4856C58.488 24.7256 58.368 25.0536 58.208 25.4696C58.048 25.8856 57.864 26.3656 57.656 26.9096C57.448 27.4536 57.216 28.0536 56.96 28.7096C56.72 29.3656 56.472 30.0536 56.216 30.7736H60.944C60.688 30.0536 60.44 29.3656 60.2 28.7096C59.96 28.0536 59.728 27.4536 59.504 26.9096C59.296 26.3656 59.112 25.8856 58.952 25.4696C58.792 25.0536 58.664 24.7256 58.568 24.4856ZM69.2169 20.7176H72.9609V37.3496H69.2169V20.7176ZM75.4906 28.5656H82.4506V31.8056H75.4906V28.5656ZM89.3829 20.7176C89.6709 21.2456 89.9989 21.9016 90.3669 22.6856C90.7509 23.4536 91.1429 24.2936 91.5429 25.2056C91.9589 26.1016 92.3669 27.0216 92.7669 27.9656C93.1669 28.9096 93.5429 29.7976 93.8949 30.6296C94.2469 29.7976 94.6229 28.9096 95.0229 27.9656C95.4229 27.0216 95.8229 26.1016 96.2229 25.2056C96.6389 24.2936 97.0309 23.4536 97.3989 22.6856C97.7829 21.9016 98.1189 21.2456 98.4069 20.7176H101.815C101.975 21.8216 102.119 23.0616 102.247 24.4376C102.391 25.7976 102.511 27.2216 102.607 28.7096C102.719 30.1816 102.815 31.6616 102.895 33.1496C102.991 34.6376 103.071 36.0376 103.135 37.3496H99.4869C99.4389 35.7336 99.3749 33.9736 99.2949 32.0696C99.2149 30.1656 99.0949 28.2456 98.9349 26.3096C98.6469 26.9816 98.3269 27.7256 97.9749 28.5416C97.6229 29.3576 97.2709 30.1736 96.9189 30.9896C96.5829 31.8056 96.2549 32.5896 95.9349 33.3416C95.6149 34.0776 95.3429 34.7096 95.1189 35.2376H92.5029C92.2789 34.7096 92.0069 34.0776 91.6869 33.3416C91.3669 32.5896 91.0309 31.8056 90.6789 30.9896C90.3429 30.1736 89.9989 29.3576 89.6469 28.5416C89.2949 27.7256 88.9749 26.9816 88.6869 26.3096C88.5269 28.2456 88.4069 30.1656 88.3269 32.0696C88.2469 33.9736 88.1829 35.7336 88.1349 37.3496H84.4869C84.5509 36.0376 84.6229 34.6376 84.7029 33.1496C84.7989 31.6616 84.8949 30.1816 84.9909 28.7096C85.1029 27.2216 85.2229 25.7976 85.3509 24.4376C85.4949 23.0616 85.6469 21.8216 85.8069 20.7176H89.3829ZM110.922 20.7176C111.21 21.2456 111.538 21.9016 111.906 22.6856C112.29 23.4536 112.682 24.2936 113.082 25.2056C113.498 26.1016 113.906 27.0216 114.306 27.9656C114.706 28.9096 115.082 29.7976 115.434 30.6296C115.786 29.7976 116.162 28.9096 116.562 27.9656C116.962 27.0216 117.362 26.1016 117.762 25.2056C118.178 24.2936 118.57 23.4536 118.938 22.6856C119.322 21.9016 119.658 21.2456 119.946 20.7176H123.354C123.514 21.8216 123.658 23.0616 123.786 24.4376C123.93 25.7976 124.05 27.2216 124.146 28.7096C124.258 30.1816 124.354 31.6616 124.434 33.1496C124.53 34.6376 124.61 36.0376 124.674 37.3496H121.026C120.978 35.7336 120.914 33.9736 120.834 32.0696C120.754 30.1656 120.634 28.2456 120.474 26.3096C120.186 26.9816 119.866 27.7256 119.514 28.5416C119.162 29.3576 118.81 30.1736 118.458 30.9896C118.122 31.8056 117.794 32.5896 117.474 33.3416C117.154 34.0776 116.882 34.7096 116.658 35.2376H114.042C113.818 34.7096 113.546 34.0776 113.226 33.3416C112.906 32.5896 112.57 31.8056 112.218 30.9896C111.882 30.1736 111.538 29.3576 111.186 28.5416C110.834 27.7256 110.514 26.9816 110.226 26.3096C110.066 28.2456 109.946 30.1656 109.866 32.0696C109.786 33.9736 109.722 35.7336 109.674 37.3496H106.026C106.09 36.0376 106.162 34.6376 106.242 33.1496C106.338 31.6616 106.434 30.1816 106.53 28.7096C106.642 27.2216 106.762 25.7976 106.89 24.4376C107.034 23.0616 107.186 21.8216 107.346 20.7176H110.922ZM137.597 37.3496C137.133 36.4216 136.621 35.4856 136.061 34.5416C135.517 33.5816 134.885 32.6056 134.165 31.6136C133.941 31.9016 133.653 32.3016 133.301 32.8136C132.965 33.3256 132.621 33.8696 132.269 34.4456C131.933 35.0216 131.613 35.5736 131.309 36.1016C131.005 36.6296 130.781 37.0456 130.637 37.3496H126.365C127.069 36.0536 127.885 34.6936 128.813 33.2696C129.757 31.8456 130.805 30.3336 131.957 28.7336L126.605 20.7176H131.141L134.381 25.9016L137.549 20.7176H141.821L136.541 28.7816C137.885 30.5256 139.013 32.1416 139.925 33.6296C140.837 35.1016 141.557 36.3416 142.085 37.3496H137.597Z" fill="#D63384"/>
<mask id="path-2-inside-1_126_12606" fill="white">
<path fill-rule="evenodd" clip-rule="evenodd" d="M23.4702 9.93405C25.7234 9.5245 27.4318 7.55219 27.4318 5.18086C27.4318 2.51263 25.2688 0.349609 22.6006 0.349609C19.9324 0.349609 17.7693 2.51263 17.7693 5.18086C17.7693 7.51817 19.4291 9.46782 21.6343 9.91546V10.6447H10.1292C7.81419 10.6447 5.76164 11.7685 4.48734 13.5004C2.02532 14.114 0.201172 16.34 0.201172 18.992C0.201172 21.1271 1.38354 22.986 3.12923 23.9498V31.6578C3.12923 35.5238 6.26324 38.6578 10.1292 38.6578H35.072C38.938 38.6578 42.072 35.5238 42.072 31.6578V23.9497C43.8177 22.986 45 21.127 45 18.992C45 16.34 43.1759 14.114 40.7139 13.5004C39.4396 11.7686 37.387 10.6447 35.072 10.6447H23.4702V9.93405Z"/>
</mask>
<path fill-rule="evenodd" clip-rule="evenodd" d="M23.4702 9.93405C25.7234 9.5245 27.4318 7.55219 27.4318 5.18086C27.4318 2.51263 25.2688 0.349609 22.6006 0.349609C19.9324 0.349609 17.7693 2.51263 17.7693 5.18086C17.7693 7.51817 19.4291 9.46782 21.6343 9.91546V10.6447H10.1292C7.81419 10.6447 5.76164 11.7685 4.48734 13.5004C2.02532 14.114 0.201172 16.34 0.201172 18.992C0.201172 21.1271 1.38354 22.986 3.12923 23.9498V31.6578C3.12923 35.5238 6.26324 38.6578 10.1292 38.6578H35.072C38.938 38.6578 42.072 35.5238 42.072 31.6578V23.9497C43.8177 22.986 45 21.127 45 18.992C45 16.34 43.1759 14.114 40.7139 13.5004C39.4396 11.7686 37.387 10.6447 35.072 10.6447H23.4702V9.93405Z" fill="#EB9546"/>
<path d="M23.4702 9.93405L23.1125 7.96629L21.4702 8.26481V9.93405H23.4702ZM21.6343 9.91546H23.6343V8.28065L22.0322 7.95543L21.6343 9.91546ZM21.6343 10.6447V12.6447H23.6343V10.6447H21.6343ZM4.48734 13.5004L4.97102 15.441L5.67082 15.2666L6.09825 14.6857L4.48734 13.5004ZM3.12923 23.9498H5.12923V22.7694L4.09585 22.1989L3.12923 23.9498ZM42.072 23.9497L41.1054 22.1989L40.072 22.7694V23.9497H42.072ZM40.7139 13.5004L39.103 14.6857L39.5304 15.2666L40.2302 15.441L40.7139 13.5004ZM23.4702 10.6447H21.4702V12.6447H23.4702V10.6447ZM25.4318 5.18086C25.4318 6.5684 24.4317 7.72651 23.1125 7.96629L23.8279 11.9018C27.0151 11.3225 29.4318 8.53599 29.4318 5.18086H25.4318ZM22.6006 2.34961C24.1642 2.34961 25.4318 3.6172 25.4318 5.18086H29.4318C29.4318 1.40806 26.3734 -1.65039 22.6006 -1.65039V2.34961ZM19.7693 5.18086C19.7693 3.6172 21.0369 2.34961 22.6006 2.34961V-1.65039C18.8278 -1.65039 15.7693 1.40806 15.7693 5.18086H19.7693ZM22.0322 7.95543C20.7407 7.69327 19.7693 6.54826 19.7693 5.18086H15.7693C15.7693 8.48807 18.1175 11.2424 21.2365 11.8755L22.0322 7.95543ZM23.6343 10.6447V9.91546H19.6343V10.6447H23.6343ZM10.1292 12.6447H21.6343V8.64473H10.1292V12.6447ZM6.09825 14.6857C7.01187 13.444 8.47704 12.6447 10.1292 12.6447V8.64473C7.15134 8.64473 4.5114 10.093 2.87643 12.3151L6.09825 14.6857ZM2.20117 18.992C2.20117 17.2799 3.37884 15.8378 4.97102 15.441L4.00367 11.5597C0.671793 12.3902 -1.79883 15.4 -1.79883 18.992H2.20117ZM4.09585 22.1989C2.96193 21.5729 2.20117 20.3699 2.20117 18.992H-1.79883C-1.79883 21.8843 -0.194849 24.3992 2.1626 25.7007L4.09585 22.1989ZM5.12923 31.6578V23.9498H1.12923V31.6578H5.12923ZM10.1292 36.6578C7.36781 36.6578 5.12923 34.4192 5.12923 31.6578H1.12923C1.12923 36.6284 5.15867 40.6578 10.1292 40.6578V36.6578ZM35.072 36.6578H10.1292V40.6578H35.072V36.6578ZM40.072 31.6578C40.072 34.4192 37.8334 36.6578 35.072 36.6578V40.6578C40.0426 40.6578 44.072 36.6284 44.072 31.6578H40.072ZM40.072 23.9497V31.6578H44.072V23.9497H40.072ZM43 18.992C43 20.3698 42.2393 21.5728 41.1054 22.1989L43.0386 25.7006C45.3961 24.3991 47 21.8843 47 18.992H43ZM40.2302 15.441C41.8223 15.8379 43 17.2799 43 18.992H47C47 15.4001 44.5294 12.3902 41.1976 11.5598L40.2302 15.441ZM35.072 12.6447C36.7242 12.6447 38.1894 13.444 39.103 14.6857L42.3248 12.3151C40.6898 10.0931 38.0499 8.64473 35.072 8.64473V12.6447ZM23.4702 12.6447H35.072V8.64473H23.4702V12.6447ZM21.4702 9.93405V10.6447H25.4702V9.93405H21.4702Z" fill="#212529" mask="url(#path-2-inside-1_126_12606)"/>
<rect x="9.98535" y="14.3325" width="25.8163" height="20.6372" rx="2" fill="#D63384" stroke="#212529" stroke-width="2"/>
<rect x="13.085" y="18.7954" width="5.85606" height="5.85606" rx="2.92803" fill="white"/>
<rect x="27.4316" y="18.7954" width="5.85606" height="5.85606" rx="2.92803" fill="white"/>
<path d="M16.5977 29.7295C18.5497 30.9983 23.9177 32.7746 29.7738 29.7295" stroke="white" stroke-width="2"/>
<path d="M53.86 8.07961C53.9333 8.08628 54.0167 8.09294 54.11 8.09961C54.21 8.09961 54.3267 8.09961 54.46 8.09961C55.24 8.09961 55.8167 7.90294 56.19 7.50961C56.57 7.11628 56.76 6.57294 56.76 5.87961C56.76 5.15294 56.58 4.60294 56.22 4.22961C55.86 3.85628 55.29 3.66961 54.51 3.66961C54.4033 3.66961 54.2933 3.67294 54.18 3.67961C54.0667 3.67961 53.96 3.68628 53.86 3.69961V8.07961ZM58.37 5.87961C58.37 6.47961 58.2767 7.00294 58.09 7.44961C57.9033 7.89628 57.6367 8.26628 57.29 8.55961C56.95 8.85294 56.5333 9.07294 56.04 9.21961C55.5467 9.36628 54.9933 9.43961 54.38 9.43961C54.1 9.43961 53.7733 9.42628 53.4 9.39961C53.0267 9.37961 52.66 9.33294 52.3 9.25961V2.50961C52.66 2.44294 53.0333 2.39961 53.42 2.37961C53.8133 2.35294 54.15 2.33961 54.43 2.33961C55.0233 2.33961 55.56 2.40628 56.04 2.53961C56.5267 2.67294 56.9433 2.88294 57.29 3.16961C57.6367 3.45628 57.9033 3.82294 58.09 4.26961C58.2767 4.71628 58.37 5.25294 58.37 5.87961ZM64.0591 9.34961C63.9858 9.10961 63.9025 8.86294 63.8091 8.60961C63.7225 8.35628 63.6358 8.10294 63.5491 7.84961H60.8491C60.7625 8.10294 60.6725 8.35628 60.5791 8.60961C60.4925 8.86294 60.4125 9.10961 60.3391 9.34961H58.7191C58.9791 8.60294 59.2258 7.91294 59.4591 7.27961C59.6925 6.64628 59.9191 6.04961 60.1391 5.48961C60.3658 4.92961 60.5858 4.39961 60.7991 3.89961C61.0191 3.39294 61.2458 2.89961 61.4791 2.41961H62.9691C63.1958 2.89961 63.4191 3.39294 63.6391 3.89961C63.8591 4.39961 64.0791 4.92961 64.2991 5.48961C64.5258 6.04961 64.7558 6.64628 64.9891 7.27961C65.2225 7.91294 65.4691 8.60294 65.7291 9.34961H64.0591ZM62.1891 3.98961C62.1558 4.08961 62.1058 4.22628 62.0391 4.39961C61.9725 4.57294 61.8958 4.77294 61.8091 4.99961C61.7225 5.22628 61.6258 5.47628 61.5191 5.74961C61.4191 6.02294 61.3158 6.30961 61.2091 6.60961H63.1791C63.0725 6.30961 62.9691 6.02294 62.8691 5.74961C62.7691 5.47628 62.6725 5.22628 62.5791 4.99961C62.4925 4.77294 62.4158 4.57294 62.3491 4.39961C62.2825 4.22628 62.2291 4.08961 62.1891 3.98961ZM70.9459 2.41961V3.74961H68.8559V9.34961H67.2959V3.74961H65.2059V2.41961H70.9459ZM75.7681 9.34961C75.6948 9.10961 75.6115 8.86294 75.5181 8.60961C75.4315 8.35628 75.3448 8.10294 75.2581 7.84961H72.5581C72.4715 8.10294 72.3815 8.35628 72.2881 8.60961C72.2015 8.86294 72.1215 9.10961 72.0481 9.34961H70.4281C70.6881 8.60294 70.9348 7.91294 71.1681 7.27961C71.4015 6.64628 71.6281 6.04961 71.8481 5.48961C72.0748 4.92961 72.2948 4.39961 72.5081 3.89961C72.7281 3.39294 72.9548 2.89961 73.1881 2.41961H74.6781C74.9048 2.89961 75.1281 3.39294 75.3481 3.89961C75.5681 4.39961 75.7881 4.92961 76.0081 5.48961C76.2348 6.04961 76.4648 6.64628 76.6981 7.27961C76.9315 7.91294 77.1781 8.60294 77.4381 9.34961H75.7681ZM73.8981 3.98961C73.8648 4.08961 73.8148 4.22628 73.7481 4.39961C73.6815 4.57294 73.6048 4.77294 73.5181 4.99961C73.4315 5.22628 73.3348 5.47628 73.2281 5.74961C73.1281 6.02294 73.0248 6.30961 72.9181 6.60961H74.8881C74.7815 6.30961 74.6781 6.02294 74.5781 5.74961C74.4781 5.47628 74.3815 5.22628 74.2881 4.99961C74.2015 4.77294 74.1248 4.57294 74.0581 4.39961C73.9915 4.22628 73.9381 4.08961 73.8981 3.98961ZM83.4693 3.49961C83.256 3.71961 83.0026 4.00628 82.7093 4.35961C82.416 4.70628 82.1126 5.08628 81.7993 5.49961C81.486 5.91294 81.176 6.33961 80.8693 6.77961C80.5626 7.21961 80.2893 7.63961 80.0493 8.03961H83.5793V9.34961H78.1293V8.41961C78.316 8.07961 78.5426 7.70294 78.8093 7.28961C79.0826 6.86961 79.366 6.44961 79.6593 6.02961C79.9526 5.60294 80.2493 5.19294 80.5493 4.79961C80.856 4.39961 81.1393 4.04294 81.3993 3.72961H78.2893V2.41961H83.4693V3.49961ZM87.4572 5.26961C87.7372 4.79628 88.0039 4.32294 88.2572 3.84961C88.5105 3.37628 88.7439 2.89961 88.9572 2.41961H90.6772C90.2972 3.16628 89.9039 3.88961 89.4972 4.58961C89.0905 5.28961 88.6605 5.99294 88.2072 6.69961V9.34961H86.6472V6.71961C86.1939 6.01294 85.7605 5.30628 85.3472 4.59961C84.9405 3.89294 84.5472 3.16628 84.1672 2.41961H85.9772C86.1905 2.89961 86.4205 3.37628 86.6672 3.84961C86.9139 4.32294 87.1772 4.79628 87.4572 5.26961ZM93.222 2.41961C93.342 2.63961 93.4787 2.91294 93.632 3.23961C93.792 3.55961 93.9554 3.90961 94.122 4.28961C94.2954 4.66294 94.4654 5.04628 94.632 5.43961C94.7987 5.83294 94.9554 6.20294 95.102 6.54961C95.2487 6.20294 95.4054 5.83294 95.572 5.43961C95.7387 5.04628 95.9054 4.66294 96.072 4.28961C96.2454 3.90961 96.4087 3.55961 96.562 3.23961C96.722 2.91294 96.862 2.63961 96.982 2.41961H98.402C98.4687 2.87961 98.5287 3.39628 98.582 3.96961C98.642 4.53628 98.692 5.12961 98.732 5.74961C98.7787 6.36294 98.8187 6.97961 98.852 7.59961C98.892 8.21961 98.9254 8.80294 98.952 9.34961H97.432C97.412 8.67628 97.3854 7.94294 97.352 7.14961C97.3187 6.35628 97.2687 5.55628 97.202 4.74961C97.082 5.02961 96.9487 5.33961 96.802 5.67961C96.6554 6.01961 96.5087 6.35961 96.362 6.69961C96.222 7.03961 96.0854 7.36628 95.952 7.67961C95.8187 7.98628 95.7054 8.24961 95.612 8.46961H94.522C94.4287 8.24961 94.3154 7.98628 94.182 7.67961C94.0487 7.36628 93.9087 7.03961 93.762 6.69961C93.622 6.35961 93.4787 6.01961 93.332 5.67961C93.1854 5.33961 93.052 5.02961 92.932 4.74961C92.8654 5.55628 92.8154 6.35628 92.782 7.14961C92.7487 7.94294 92.722 8.67628 92.702 9.34961H91.182C91.2087 8.80294 91.2387 8.21961 91.272 7.59961C91.312 6.97961 91.352 6.36294 91.392 5.74961C91.4387 5.12961 91.4887 4.53628 91.542 3.96961C91.602 3.39628 91.6654 2.87961 91.732 2.41961H93.222ZM100.357 9.34961V2.41961H105.037V3.72961H101.917V5.08961H104.687V6.36961H101.917V8.03961H105.267V9.34961H100.357ZM108.311 8.15961C108.531 8.15961 108.711 8.14294 108.851 8.10961C108.998 8.06961 109.114 8.01961 109.201 7.95961C109.288 7.89294 109.348 7.81628 109.381 7.72961C109.414 7.64294 109.431 7.54628 109.431 7.43961C109.431 7.21294 109.324 7.02628 109.111 6.87961C108.898 6.72628 108.531 6.56294 108.011 6.38961C107.784 6.30961 107.558 6.21961 107.331 6.11961C107.104 6.01294 106.901 5.88294 106.721 5.72961C106.541 5.56961 106.394 5.37961 106.281 5.15961C106.168 4.93294 106.111 4.65961 106.111 4.33961C106.111 4.01961 106.171 3.73294 106.291 3.47961C106.411 3.21961 106.581 2.99961 106.801 2.81961C107.021 2.63961 107.288 2.50294 107.601 2.40961C107.914 2.30961 108.268 2.25961 108.661 2.25961C109.128 2.25961 109.531 2.30961 109.871 2.40961C110.211 2.50961 110.491 2.61961 110.711 2.73961L110.261 3.96961C110.068 3.86961 109.851 3.78294 109.611 3.70961C109.378 3.62961 109.094 3.58961 108.761 3.58961C108.388 3.58961 108.118 3.64294 107.951 3.74961C107.791 3.84961 107.711 4.00628 107.711 4.21961C107.711 4.34628 107.741 4.45294 107.801 4.53961C107.861 4.62628 107.944 4.70628 108.051 4.77961C108.164 4.84628 108.291 4.90961 108.431 4.96961C108.578 5.02294 108.738 5.07961 108.911 5.13961C109.271 5.27294 109.584 5.40628 109.851 5.53961C110.118 5.66628 110.338 5.81628 110.511 5.98961C110.691 6.16294 110.824 6.36628 110.911 6.59961C110.998 6.83294 111.041 7.11628 111.041 7.44961C111.041 8.09628 110.814 8.59961 110.361 8.95961C109.908 9.31294 109.224 9.48961 108.311 9.48961C108.004 9.48961 107.728 9.46961 107.481 9.42961C107.234 9.39628 107.014 9.35294 106.821 9.29961C106.634 9.24628 106.471 9.18961 106.331 9.12961C106.198 9.06961 106.084 9.01294 105.991 8.95961L106.431 7.71961C106.638 7.83294 106.891 7.93628 107.191 8.02961C107.498 8.11628 107.871 8.15961 108.311 8.15961Z" fill="#D63384"/>
</svg>
