<svg width="45" height="39" viewBox="0 0 45 39" fill="none" xmlns="http://www.w3.org/2000/svg">
<mask id="path-1-inside-1_126_12686" fill="white">
<path fill-rule="evenodd" clip-rule="evenodd" d="M23.4702 9.93405C25.7234 9.5245 27.4318 7.55219 27.4318 5.18086C27.4318 2.51263 25.2688 0.349609 22.6006 0.349609C19.9324 0.349609 17.7693 2.51263 17.7693 5.18086C17.7693 7.51817 19.4291 9.46782 21.6343 9.91546V10.6447H10.1292C7.81419 10.6447 5.76164 11.7685 4.48734 13.5004C2.02532 14.114 0.201172 16.34 0.201172 18.992C0.201172 21.1271 1.38354 22.986 3.12923 23.9498V31.6578C3.12923 35.5238 6.26324 38.6578 10.1292 38.6578H35.072C38.938 38.6578 42.072 35.5238 42.072 31.6578V23.9497C43.8177 22.986 45 21.127 45 18.992C45 16.34 43.1759 14.114 40.7139 13.5004C39.4396 11.7686 37.387 10.6447 35.072 10.6447H23.4702V9.93405Z"/>
</mask>
<path fill-rule="evenodd" clip-rule="evenodd" d="M23.4702 9.93405C25.7234 9.5245 27.4318 7.55219 27.4318 5.18086C27.4318 2.51263 25.2688 0.349609 22.6006 0.349609C19.9324 0.349609 17.7693 2.51263 17.7693 5.18086C17.7693 7.51817 19.4291 9.46782 21.6343 9.91546V10.6447H10.1292C7.81419 10.6447 5.76164 11.7685 4.48734 13.5004C2.02532 14.114 0.201172 16.34 0.201172 18.992C0.201172 21.1271 1.38354 22.986 3.12923 23.9498V31.6578C3.12923 35.5238 6.26324 38.6578 10.1292 38.6578H35.072C38.938 38.6578 42.072 35.5238 42.072 31.6578V23.9497C43.8177 22.986 45 21.127 45 18.992C45 16.34 43.1759 14.114 40.7139 13.5004C39.4396 11.7686 37.387 10.6447 35.072 10.6447H23.4702V9.93405Z" fill="#EB9546"/>
<path d="M23.4702 9.93405L23.1125 7.96629L21.4702 8.26481V9.93405H23.4702ZM21.6343 9.91546H23.6343V8.28065L22.0322 7.95543L21.6343 9.91546ZM21.6343 10.6447V12.6447H23.6343V10.6447H21.6343ZM4.48734 13.5004L4.97102 15.441L5.67082 15.2666L6.09825 14.6857L4.48734 13.5004ZM3.12923 23.9498H5.12923V22.7694L4.09585 22.1989L3.12923 23.9498ZM42.072 23.9497L41.1054 22.1989L40.072 22.7694V23.9497H42.072ZM40.7139 13.5004L39.103 14.6857L39.5304 15.2666L40.2302 15.441L40.7139 13.5004ZM23.4702 10.6447H21.4702V12.6447H23.4702V10.6447ZM25.4318 5.18086C25.4318 6.5684 24.4317 7.72651 23.1125 7.96629L23.8279 11.9018C27.0151 11.3225 29.4318 8.53599 29.4318 5.18086H25.4318ZM22.6006 2.34961C24.1642 2.34961 25.4318 3.6172 25.4318 5.18086H29.4318C29.4318 1.40806 26.3734 -1.65039 22.6006 -1.65039V2.34961ZM19.7693 5.18086C19.7693 3.6172 21.0369 2.34961 22.6006 2.34961V-1.65039C18.8278 -1.65039 15.7693 1.40806 15.7693 5.18086H19.7693ZM22.0322 7.95543C20.7407 7.69327 19.7693 6.54826 19.7693 5.18086H15.7693C15.7693 8.48807 18.1175 11.2424 21.2365 11.8755L22.0322 7.95543ZM23.6343 10.6447V9.91546H19.6343V10.6447H23.6343ZM10.1292 12.6447H21.6343V8.64473H10.1292V12.6447ZM6.09825 14.6857C7.01187 13.444 8.47704 12.6447 10.1292 12.6447V8.64473C7.15134 8.64473 4.5114 10.093 2.87643 12.3151L6.09825 14.6857ZM2.20117 18.992C2.20117 17.2799 3.37884 15.8378 4.97102 15.441L4.00367 11.5597C0.671793 12.3902 -1.79883 15.4 -1.79883 18.992H2.20117ZM4.09585 22.1989C2.96193 21.5729 2.20117 20.3699 2.20117 18.992H-1.79883C-1.79883 21.8843 -0.194849 24.3992 2.1626 25.7007L4.09585 22.1989ZM5.12923 31.6578V23.9498H1.12923V31.6578H5.12923ZM10.1292 36.6578C7.36781 36.6578 5.12923 34.4192 5.12923 31.6578H1.12923C1.12923 36.6284 5.15867 40.6578 10.1292 40.6578V36.6578ZM35.072 36.6578H10.1292V40.6578H35.072V36.6578ZM40.072 31.6578C40.072 34.4192 37.8334 36.6578 35.072 36.6578V40.6578C40.0426 40.6578 44.072 36.6284 44.072 31.6578H40.072ZM40.072 23.9497V31.6578H44.072V23.9497H40.072ZM43 18.992C43 20.3698 42.2393 21.5728 41.1054 22.1989L43.0386 25.7006C45.3961 24.3991 47 21.8843 47 18.992H43ZM40.2302 15.441C41.8223 15.8379 43 17.2799 43 18.992H47C47 15.4001 44.5294 12.3902 41.1976 11.5598L40.2302 15.441ZM35.072 12.6447C36.7242 12.6447 38.1894 13.444 39.103 14.6857L42.3248 12.3151C40.6898 10.0931 38.0499 8.64473 35.072 8.64473V12.6447ZM23.4702 12.6447H35.072V8.64473H23.4702V12.6447ZM21.4702 9.93405V10.6447H25.4702V9.93405H21.4702Z" fill="#212529" mask="url(#path-1-inside-1_126_12686)"/>
<rect x="9.98535" y="14.3325" width="25.8163" height="20.6372" rx="2" fill="#D63384" stroke="#212529" stroke-width="2"/>
<rect x="13.085" y="18.7954" width="5.85606" height="5.85606" rx="2.92803" fill="white"/>
<rect x="27.4316" y="18.7954" width="5.85606" height="5.85606" rx="2.92803" fill="white"/>
<path d="M16.5977 29.7295C18.5497 30.9983 23.9177 32.7746 29.7738 29.7295" stroke="white" stroke-width="2"/>
</svg>
